<svg width="35" height="36" viewBox="0 0 35 36" fill="none" xmlns="http://www.w3.org/2000/svg">
<g opacity="0.8">
<path d="M15.3125 30.7186C16.5206 30.7186 17.5 29.7392 17.5 28.5311C17.5 27.3229 16.5206 26.3436 15.3125 26.3436C14.1044 26.3436 13.125 27.3229 13.125 28.5311C13.125 29.7392 14.1044 30.7186 15.3125 30.7186Z" fill="#07345B"/>
<path d="M25.5208 30.7186C26.7289 30.7186 27.7083 29.7392 27.7083 28.5311C27.7083 27.3229 26.7289 26.3436 25.5208 26.3436C24.3127 26.3436 23.3333 27.3229 23.3333 28.5311C23.3333 29.7392 24.3127 30.7186 25.5208 30.7186Z" fill="#07345B"/>
<path d="M30.625 10.3019H10.6954L9.01252 6.26232C8.7916 5.73024 8.41768 5.27572 7.93816 4.95639C7.45864 4.63705 6.8951 4.46727 6.31898 4.46857H2.91669V7.38524H6.32044L13.2373 23.9884C13.4634 24.5309 13.9956 24.8852 14.5834 24.8852H26.25C26.8581 24.8852 27.4021 24.5075 27.6165 23.9402L31.9915 12.2736C32.0734 12.0528 32.1008 11.8154 32.0714 11.5818C32.042 11.3481 31.9565 11.125 31.8224 10.9314C31.6882 10.7378 31.5093 10.5795 31.3008 10.4699C31.0924 10.3603 30.8605 10.3027 30.625 10.3019ZM24.7917 19.0519H21.875V21.9686H18.9584V19.0519H16.0417V16.1352H18.9584V13.2186H21.875V16.1352H24.7917V19.0519Z" fill="#07345B"/>
</g>
</svg>
