<svg width="30" height="30" viewBox="0 0 30 30" fill="none" xmlns="http://www.w3.org/2000/svg">
<path d="M29.1944 13.0499C29.1934 13.0492 29.1927 13.0483 29.192 13.0476L16.9532 0.809261C16.4315 0.287256 15.7379 0 15.0002 0C14.2624 0 13.5688 0.287256 13.0469 0.809203L0.814435 13.0414C0.810333 13.0455 0.805997 13.0498 0.802129 13.054C-0.26919 14.1314 -0.267315 15.8795 0.807403 16.9542C1.29835 17.4455 1.94658 17.7298 2.63999 17.7597C2.66835 17.7625 2.69677 17.7638 2.72537 17.7638H3.21292V26.7704C3.21292 28.5529 4.66326 30.003 6.44575 30.003H11.234C11.7195 30.003 12.113 29.6092 12.113 29.124V22.0628C12.113 21.2495 12.7747 20.5879 13.588 20.5879H16.4123C17.2256 20.5879 17.8871 21.2495 17.8871 22.0628V29.124C17.8871 29.6093 18.2806 30.003 18.7661 30.003H23.5543C25.337 30.003 26.7872 28.5529 26.7872 26.7704V17.7639H27.2395C27.977 17.7639 28.6706 17.4766 29.1927 16.9545C30.2686 15.8782 30.269 14.1268 29.1943 13.0498L29.1944 13.0499ZM27.9495 15.7116C27.8565 15.8051 27.7459 15.8793 27.624 15.9299C27.5021 15.9804 27.3714 16.0063 27.2395 16.006H25.9081C25.4226 16.006 25.0291 16.3994 25.0291 16.885V26.7704C25.0291 27.5835 24.3676 28.245 23.5543 28.245H19.6451V22.0628C19.6451 20.2803 18.1949 18.8299 16.4122 18.8299H13.5881C11.8054 18.8299 10.355 20.2803 10.355 22.0628V28.245H6.44586C5.63273 28.245 4.97097 27.5834 4.97097 26.7704V16.8849C4.97097 16.3994 4.57747 16.0059 4.09197 16.0059H2.7835C2.76979 16.0049 2.75605 16.0043 2.74231 16.004C2.48042 15.9995 2.23483 15.8956 2.05083 15.7113C1.65938 15.3198 1.65938 14.6828 2.05083 14.2912C2.05101 14.2912 2.05101 14.2909 2.05124 14.2907L2.05194 14.29L14.2903 2.05216C14.3833 1.95858 14.4939 1.88439 14.6157 1.83389C14.7376 1.78339 14.8683 1.75759 15.0002 1.75799C15.2682 1.75799 15.5203 1.86236 15.71 2.05216L27.9456 14.2875L27.9514 14.293C28.3407 14.6852 28.34 15.3209 27.9495 15.7116Z" fill="#901515"/>
</svg>
