<svg width="35" height="35" viewBox="0 0 35 35" fill="none" xmlns="http://www.w3.org/2000/svg">
<g opacity="0.8" clip-path="url(#clip0_16_235)">
<path d="M20.1736 9.72224C22.3214 9.72224 24.0625 7.98112 24.0625 5.83335C24.0625 3.68557 22.3214 1.94446 20.1736 1.94446C18.0258 1.94446 16.2847 3.68557 16.2847 5.83335C16.2847 7.98112 18.0258 9.72224 20.1736 9.72224Z" fill="#07345B"/>
<path d="M24.15 25.5014C24.0426 25.4291 23.9218 25.379 23.7947 25.3541C23.6677 25.3291 23.5369 25.3298 23.4101 25.3561C23.2833 25.3823 23.1631 25.4337 23.0564 25.507C22.9497 25.5804 22.8588 25.6743 22.7889 25.7833C21.849 27.1752 20.6977 28.4119 19.3764 29.4486C19.0555 29.6917 17.8597 30.6153 17.3542 30.4208C17.0042 30.3139 17.2083 29.6236 17.2764 29.3319L17.7917 27.8056C18.0055 27.1833 21.7292 16.1389 22.1375 14.875C22.7403 13.0278 22.4778 11.2097 19.7264 11.6472C18.9778 11.725 11.3847 12.707 11.2486 12.7167C11.1209 12.725 10.9961 12.7583 10.8814 12.8149C10.7666 12.8714 10.6641 12.95 10.5796 13.0461C10.4952 13.1423 10.4306 13.2541 10.3894 13.3752C10.3482 13.4964 10.3313 13.6244 10.3396 13.7521C10.3479 13.8798 10.3812 14.0046 10.4378 14.1193C10.4943 14.2341 10.5729 14.3366 10.669 14.421C10.7652 14.5055 10.877 14.5701 10.9981 14.6113C11.1193 14.6525 11.2473 14.6694 11.375 14.6611C11.375 14.6611 14.2917 14.2819 14.6125 14.2528C14.7768 14.2367 14.9423 14.2686 15.0889 14.3445C15.2356 14.4204 15.3571 14.5371 15.4389 14.6806C15.615 15.2251 15.5909 15.8147 15.3708 16.3431C15.118 17.3153 11.1222 28.5736 10.9958 29.225C10.8603 29.7701 10.8979 30.3439 11.1035 30.8666C11.3091 31.3893 11.6725 31.835 12.143 32.1417C13.0263 32.7304 14.078 33.0138 15.1375 32.9486C16.1677 32.9367 17.1866 32.7323 18.1417 32.3458C20.5625 31.3736 23.0903 28.7875 24.4222 26.7556C24.5369 26.5491 24.5725 26.308 24.5224 26.0772C24.4723 25.8464 24.34 25.6417 24.15 25.5014Z" fill="#07345B"/>
</g>
<defs>
<clipPath id="clip0_16_235">
<rect width="35" height="35" fill="white"/>
</clipPath>
</defs>
</svg>
