<svg width="91" height="91" viewBox="0 0 91 91" fill="none" xmlns="http://www.w3.org/2000/svg">
<g filter="url(#filter0_i_264_6)">
<circle cx="45.5266" cy="45.4321" r="45.1694" fill="white"/>
</g>
<g filter="url(#filter1_d_264_6)">
<circle cx="45.5266" cy="45.432" r="37.4358" fill="url(#paint0_linear_264_6)"/>
</g>
<path d="M23.3627 35.4536L23.0427 36.1036H19.5027V35.5436L20.4427 34.7536V29.2136L19.3327 28.8936L19.6627 28.2436H23.2027V28.8036L22.2527 29.6036V35.1336L23.3627 35.4536ZM27.6127 36.1036H25.4927L22.6427 32.1636L25.5327 29.6236L24.3627 28.8936L24.6927 28.2436H27.6927V28.8036L24.4327 31.6736L26.8527 34.9436L27.9427 35.4536L27.6127 36.1036ZM34.6657 36.1136H28.3457V35.5536L29.2857 34.8136V29.2236L28.1757 28.8936L28.5057 28.2436H34.5657L35.2857 28.0636V30.6136L34.7357 30.8336L33.5057 29.0036H31.0957V31.7036H32.2857L33.0157 30.5836H33.5757V33.4936L32.9257 33.8236L32.2757 32.4736H31.0957V35.3436H33.4257L34.8357 33.3036L35.3857 33.5336V36.2936L34.6657 36.1136ZM42.6688 36.1136H36.3488V35.5536L37.2888 34.8136V29.2236L36.1788 28.8936L36.5088 28.2436H42.5688L43.2888 28.0636V30.6136L42.7388 30.8336L41.5088 29.0036H39.0988V31.7036H40.2888L41.0188 30.5836H41.5788V33.4936L40.9288 33.8236L40.2788 32.4736H39.0988V35.3436H41.4288L42.8388 33.3036L43.3888 33.5336V36.2936L42.6688 36.1136ZM48.3719 32.1936C48.7253 32.1936 49.0053 32.0703 49.2119 31.8236C49.4186 31.577 49.5219 31.237 49.5219 30.8036C49.5219 30.277 49.3953 29.8503 49.1419 29.5236C48.8886 29.1903 48.5153 29.0236 48.0219 29.0236C47.6953 29.0236 47.3886 29.1236 47.1019 29.3236V35.0736L48.8419 35.4536L48.5119 36.1036H44.3519V35.5436L45.2919 34.8036V29.2336L44.1819 28.8936L44.5119 28.2436H46.1719C46.7653 28.2436 47.3486 28.2236 47.9219 28.1836C48.3486 28.157 48.6619 28.1436 48.8619 28.1436C49.3819 28.1436 49.8419 28.247 50.2419 28.4536C50.6419 28.6536 50.9519 28.9303 51.1719 29.2836C51.3919 29.637 51.5019 30.0303 51.5019 30.4636C51.5019 30.9436 51.3186 31.3936 50.9519 31.8136C50.5853 32.2336 50.1219 32.5636 49.5619 32.8036C49.0019 33.0436 48.4553 33.1503 47.9219 33.1236L47.4819 32.8536L47.8119 32.2036H48.3719V32.1936ZM63.0748 36.1036H59.3548V35.5436L60.4448 34.8936L59.8348 33.4036H56.7448L56.1948 34.7436L57.7248 35.4536L57.4048 36.1036H54.1748V35.5436L55.2548 34.7336L57.8148 28.5636L59.5448 28.0536L62.3848 34.9436L63.4048 35.4536L63.0748 36.1036ZM58.3048 29.6336L57.0648 32.6336H59.5248L58.3048 29.6336ZM70.975 29.6036V36.1036H70.115L65.425 30.7536V34.9236L66.845 35.4536L66.525 36.1036H63.625V35.5436L64.565 34.7536V29.5036L63.455 28.8936L63.785 28.2436H65.545L70.115 33.4436V29.4136L68.695 28.8936L69.025 28.2436H71.925V28.8036L70.975 29.6036ZM40.1444 50.1136H33.8244V49.5536L34.7644 48.8136V43.2236L33.6544 42.8936L33.9844 42.2436H40.0444L40.7644 42.0636V44.6136L40.2144 44.8336L38.9844 43.0036H36.5744V45.7036H37.7644L38.4944 44.5836H39.0544V47.4936L38.4044 47.8236L37.7544 46.4736H36.5744V49.3436H38.9044L40.3144 47.3036L40.8644 47.5336V50.2936L40.1444 50.1136ZM46.4575 49.1636L47.5675 49.4636L47.2475 50.1136H43.7675V49.5536L44.7075 48.8136V47.4836L42.0175 43.2736L41.2875 42.9036L41.4875 42.2536H44.8975V42.8136L44.1475 43.3936L45.9375 46.1836L47.7275 43.5936L46.2675 42.8936L46.5875 42.2436H49.8175V42.8036L48.8275 43.5236L46.4575 46.9936V49.1636ZM56.4143 50.1136H50.0943V49.5536L51.0343 48.8136V43.2236L49.9243 42.8936L50.2543 42.2436H56.3143L57.0343 42.0636V44.6136L56.4843 44.8336L55.2543 43.0036H52.8443V45.7036H54.0343L54.7643 44.5836H55.3243V47.4936L54.6743 47.8236L54.0243 46.4736H52.8443V49.3436H55.1743L56.5843 47.3036L57.1343 47.5336V50.2936L56.4143 50.1136Z" fill="white"/>
<g clip-path="url(#clip0_264_6)">
<path d="M46.0809 59.5154C39.3079 59.5154 34.0966 65.4824 34.0966 65.4824L33.6139 66.0154L34.0966 66.5484C34.0966 66.5484 38.8481 71.9661 45.1669 72.465C45.4683 72.5024 45.7697 72.5154 46.0809 72.5154C46.3921 72.5154 46.6936 72.5024 46.995 72.4642C53.3138 71.9661 58.0653 66.5492 58.0653 66.5492L58.5479 66.0154L58.0653 65.4824C58.0653 65.4824 52.8539 59.5154 46.0809 59.5154ZM46.0809 61.1404C47.8709 61.1404 49.5211 61.6295 50.9559 62.2828C51.4898 63.1631 51.7709 64.1734 51.7684 65.2029C51.7719 66.6035 51.258 67.956 50.3255 69.001C49.393 70.046 48.1074 70.7098 46.7155 70.8652C46.6993 70.8684 46.6806 70.8619 46.6651 70.8652C46.4709 70.8741 46.2776 70.8904 46.0809 70.8904C45.8648 70.8904 45.656 70.8774 45.4464 70.8652C44.0544 70.7098 42.7689 70.046 41.8364 69.001C40.9038 67.956 40.39 66.6035 40.3934 65.2029C40.3934 64.1426 40.6794 63.1554 41.1807 62.3079H41.1556C42.601 61.6417 44.2715 61.1404 46.0809 61.1404ZM46.0809 62.7654C45.4343 62.7656 44.8141 63.0227 44.357 63.4801C43.8999 63.9375 43.6432 64.5578 43.6434 65.2045C43.6437 65.8512 43.9008 66.4713 44.3582 66.9284C44.8156 67.3855 45.4359 67.6422 46.0826 67.642C46.4028 67.6419 46.7198 67.5787 47.0156 67.4561C47.3114 67.3335 47.5801 67.1538 47.8065 66.9273C48.0328 66.7008 48.2123 66.4319 48.3348 66.136C48.4572 65.8402 48.5202 65.5231 48.5201 65.2029C48.52 64.8827 48.4568 64.5656 48.3341 64.2698C48.2115 63.9741 48.0318 63.7053 47.8053 63.479C47.5788 63.2526 47.31 63.0731 47.0141 62.9507C46.7182 62.8282 46.4011 62.7653 46.0809 62.7654ZM38.9716 63.5275C38.8394 64.0763 38.7713 64.6385 38.7684 65.2029C38.7684 66.628 39.1747 67.9613 39.8856 69.0874C38.4433 68.2425 37.1198 67.2094 35.9499 66.0154C36.8711 65.0866 37.8834 64.2536 38.9716 63.5275ZM53.1903 63.5275C54.2784 64.2534 55.2908 65.0868 56.212 66.0154C55.0421 67.2094 53.7186 68.2425 52.2762 69.0874C53.0091 67.9246 53.3965 66.5774 53.3934 65.2029C53.3934 64.6219 53.3171 64.0678 53.1903 63.5275Z" fill="white"/>
</g>
<defs>
<filter id="filter0_i_264_6" x="-2.10731" y="0.262695" width="92.8033" height="90.3387" filterUnits="userSpaceOnUse" color-interpolation-filters="sRGB">
<feFlood flood-opacity="0" result="BackgroundImageFix"/>
<feBlend mode="normal" in="SourceGraphic" in2="BackgroundImageFix" result="shape"/>
<feColorMatrix in="SourceAlpha" type="matrix" values="0 0 0 0 0 0 0 0 0 0 0 0 0 0 0 0 0 0 127 0" result="hardAlpha"/>
<feMorphology radius="0.98582" operator="erode" in="SourceAlpha" result="effect1_innerShadow_264_6"/>
<feOffset dx="-2.46455"/>
<feGaussianBlur stdDeviation="0.98582"/>
<feComposite in2="hardAlpha" operator="arithmetic" k2="-1" k3="1"/>
<feColorMatrix type="matrix" values="0 0 0 0 0 0 0 0 0 0 0 0 0 0 0 0 0 0 0.25 0"/>
<feBlend mode="normal" in2="shape" result="effect1_innerShadow_264_6"/>
</filter>
<filter id="filter1_d_264_6" x="2.66884" y="5.03876" width="80.7865" height="80.7864" filterUnits="userSpaceOnUse" color-interpolation-filters="sRGB">
<feFlood flood-opacity="0" result="BackgroundImageFix"/>
<feColorMatrix in="SourceAlpha" type="matrix" values="0 0 0 0 0 0 0 0 0 0 0 0 0 0 0 0 0 0 127 0" result="hardAlpha"/>
<feMorphology radius="0.98582" operator="dilate" in="SourceAlpha" result="effect1_dropShadow_264_6"/>
<feOffset dx="-2.46455"/>
<feGaussianBlur stdDeviation="0.98582"/>
<feComposite in2="hardAlpha" operator="out"/>
<feColorMatrix type="matrix" values="0 0 0 0 0 0 0 0 0 0 0 0 0 0 0 0 0 0 0.25 0"/>
<feBlend mode="normal" in2="BackgroundImageFix" result="effect1_dropShadow_264_6"/>
<feBlend mode="normal" in="SourceGraphic" in2="effect1_dropShadow_264_6" result="shape"/>
</filter>
<linearGradient id="paint0_linear_264_6" x1="13.4891" y1="20.2386" x2="78.0336" y2="72.3905" gradientUnits="userSpaceOnUse">
<stop stop-color="#FF1F1F"/>
<stop offset="0.496556" stop-color="#8C1414"/>
<stop offset="1" stop-color="#450E0E"/>
</linearGradient>
<clipPath id="clip0_264_6">
<rect width="26" height="26" fill="white" transform="translate(33.0809 53.0154)"/>
</clipPath>
</defs>
</svg>
