<svg width="35" height="35" viewBox="0 0 35 35" fill="none" xmlns="http://www.w3.org/2000/svg">
<g clip-path="url(#clip0_16_261)">
<path opacity="0.8" fill-rule="evenodd" clip-rule="evenodd" d="M0 3.75C0 2.75544 0.395088 1.80161 1.09835 1.09835C1.80161 0.395088 2.75544 0 3.75 0L21.25 0C22.2446 0 23.1984 0.395088 23.9016 1.09835C24.6049 1.80161 25 2.75544 25 3.75V8.5975C23.9856 9.40999 23.3274 10.5855 23.165 11.875H14.375C13.6363 11.875 12.9049 12.0205 12.2224 12.3032C11.5399 12.5859 10.9199 13.0002 10.3975 13.5225C9.87519 14.0449 9.46086 14.6649 9.17817 15.3474C8.89549 16.0299 8.75 16.7613 8.75 17.5C8.75 18.2387 8.89549 18.9701 9.17817 19.6526C9.46086 20.3351 9.87519 20.9551 10.3975 21.4775C10.9199 21.9998 11.5399 22.4141 12.2224 22.6968C12.9049 22.9795 13.6363 23.125 14.375 23.125H23.165C23.3274 24.4145 23.9856 25.59 25 26.4025V31.25C25 32.2446 24.6049 33.1984 23.9016 33.9016C23.1984 34.6049 22.2446 35 21.25 35H3.75C2.75544 35 1.80161 34.6049 1.09835 33.9016C0.395088 33.1984 0 32.2446 0 31.25L0 3.75ZM27.4075 10.7675C27.0648 10.9094 26.772 11.1498 26.5659 11.4582C26.3599 11.7666 26.2499 12.1291 26.25 12.5V15H14.375C13.712 15 13.0761 15.2634 12.6072 15.7322C12.1384 16.2011 11.875 16.837 11.875 17.5C11.875 18.163 12.1384 18.7989 12.6072 19.2678C13.0761 19.7366 13.712 20 14.375 20H26.25V22.5C26.2503 22.8706 26.3605 23.2328 26.5665 23.5408C26.7726 23.8489 27.0653 24.0889 27.4077 24.2307C27.7501 24.3725 28.1268 24.4096 28.4903 24.3374C28.8538 24.2652 29.1878 24.0869 29.45 23.825L34.45 18.825C34.8011 18.4734 34.9983 17.9969 34.9983 17.5C34.9983 17.0031 34.8011 16.5266 34.45 16.175L29.45 11.175C29.188 10.9128 28.8541 10.7341 28.4905 10.6616C28.127 10.589 27.7501 10.6259 27.4075 10.7675Z" fill="#07345B"/>
</g>
<defs>
<clipPath id="clip0_16_261">
<rect width="35" height="35" fill="white"/>
</clipPath>
</defs>
</svg>
