<svg width="32" height="28" viewBox="0 0 32 28" fill="none" xmlns="http://www.w3.org/2000/svg">
<path d="M22.7917 27.1773L22.3542 24.9898C22.0625 24.8683 21.7893 24.7409 21.5346 24.6077C21.2799 24.4745 21.0184 24.3102 20.75 24.1148L18.6354 24.7711L17.1771 22.2919L18.8542 20.8336C18.8056 20.5419 18.7813 20.2259 18.7813 19.8856C18.7813 19.5454 18.8056 19.2294 18.8542 18.9377L17.1771 17.4794L18.6354 15.0002L20.75 15.6565C21.0174 15.462 21.2789 15.2982 21.5346 15.165C21.7903 15.0318 22.0635 14.904 22.3542 14.7815L22.7917 12.594H25.7084L26.1459 14.7815C26.4375 14.903 26.7112 15.0308 26.9669 15.165C27.2226 15.2992 27.4836 15.463 27.75 15.6565L29.8646 15.0002L31.3229 17.4794L29.6459 18.9377C29.6945 19.2294 29.7188 19.5454 29.7188 19.8856C29.7188 20.2259 29.6945 20.5419 29.6459 20.8336L31.3229 22.2919L29.8646 24.7711L27.75 24.1148C27.4827 24.3093 27.2216 24.4736 26.9669 24.6077C26.7122 24.7419 26.4385 24.8693 26.1459 24.9898L25.7084 27.1773H22.7917ZM24.25 22.8023C25.0521 22.8023 25.739 22.517 26.3106 21.9463C26.8823 21.3756 27.1677 20.6887 27.1667 19.8856C27.1657 19.0826 26.8804 18.3962 26.3106 17.8265C25.7409 17.2568 25.054 16.9709 24.25 16.969C23.446 16.967 22.7596 17.2529 22.1909 17.8265C21.6221 18.4001 21.3363 19.0865 21.3334 19.8856C21.3304 20.6848 21.6163 21.3717 22.1909 21.9463C22.7654 22.5208 23.4518 22.8062 24.25 22.8023ZM3.83335 24.2606C3.03127 24.2606 2.34488 23.9753 1.77419 23.4046C1.20349 22.8339 0.917659 22.147 0.916687 21.344V3.84397C0.916687 3.04189 1.20252 2.3555 1.77419 1.78481C2.34585 1.21411 3.03224 0.928279 3.83335 0.927307H12.5834L15.5 3.84397H27.1667C27.9688 3.84397 28.6556 4.12981 29.2273 4.70147C29.799 5.27314 30.0843 5.95953 30.0834 6.76064V11.5367C29.2327 10.929 28.309 10.4672 27.3125 10.1513C26.316 9.83529 25.283 9.67731 24.2136 9.67731C21.3455 9.67731 18.9334 10.6802 16.9773 12.6858C15.0212 14.6915 14.0427 17.0793 14.0417 19.8492C14.0417 20.627 14.1268 21.3804 14.2969 22.1096C14.467 22.8388 14.7222 23.5558 15.0625 24.2606H3.83335Z" fill="#07345B"/>
</svg>
