<svg width="28" height="28" viewBox="0 0 28 28" fill="none" xmlns="http://www.w3.org/2000/svg">
<mask id="path-1-inside-1_162_314" fill="white">
<path d="M24.645 16.1454H17.1579C16.579 16.1461 16.0239 16.3764 15.6145 16.7858C15.2051 17.1952 14.9748 17.7502 14.9742 18.3292V25.8163C14.9748 26.3952 15.2051 26.9503 15.6145 27.3597C16.0239 27.7691 16.579 27.9993 17.1579 28H24.645C25.224 27.9993 25.779 27.7691 26.1884 27.3597C26.5978 26.9503 26.8281 26.3952 26.8287 25.8163V18.3292C26.8281 17.7502 26.5978 17.1952 26.1884 16.7858C25.779 16.3764 25.224 16.1461 24.645 16.1454ZM17.1579 26.1282C17.0752 26.1282 16.9958 26.0954 16.9373 26.0369C16.8788 25.9784 16.846 25.899 16.846 25.8163V18.3292C16.846 18.2464 16.8788 18.1671 16.9373 18.1086C16.9958 18.0501 17.0752 18.0172 17.1579 18.0172H24.645C24.7278 18.0172 24.8071 18.0501 24.8656 18.1086C24.9241 18.1671 24.957 18.2464 24.957 18.3292V25.8163C24.957 25.899 24.9241 25.9784 24.8656 26.0369C24.8071 26.0954 24.7278 26.1282 24.645 26.1282H17.1579ZM20.9015 0.553566C20.6148 0.553068 20.3308 0.609259 20.0659 0.718904C19.801 0.828552 19.5604 0.989492 19.3579 1.19246L14.9954 5.55494C14.5868 5.96475 14.3574 6.51984 14.3574 7.09853C14.3574 7.67723 14.5868 8.23231 14.9954 8.64212L19.3579 13.0046C19.7675 13.4135 20.3227 13.6431 20.9015 13.6431C21.4803 13.6431 22.0354 13.4135 22.4451 13.0046L26.8075 8.64212C27.2164 8.23248 27.4461 7.67733 27.4461 7.09853C27.4461 6.51974 27.2164 5.96459 26.8075 5.55494L22.4451 1.19246C22.2426 0.989492 22.002 0.828552 21.737 0.718904C21.4721 0.609259 21.1882 0.553068 20.9015 0.553566ZM20.9015 11.773C20.8605 11.7732 20.8198 11.7652 20.7819 11.7496C20.744 11.734 20.7095 11.7109 20.6806 11.6819L16.3181 7.3194C16.2891 7.29042 16.266 7.256 16.2503 7.2181C16.2346 7.1802 16.2265 7.13957 16.2265 7.09853C16.2265 7.0575 16.2346 7.01687 16.2503 6.97897C16.266 6.94107 16.2891 6.90664 16.3181 6.87766L20.6806 2.51518C20.7096 2.48613 20.744 2.46308 20.7819 2.44736C20.8198 2.43163 20.8604 2.42353 20.9015 2.42353C20.9425 2.42353 20.9831 2.43163 21.021 2.44736C21.0589 2.46308 21.0934 2.48613 21.1223 2.51518L25.4848 6.87766C25.5139 6.90664 25.5369 6.94107 25.5526 6.97897C25.5684 7.01687 25.5765 7.0575 25.5765 7.09853C25.5765 7.13957 25.5684 7.1802 25.5526 7.2181C25.5369 7.256 25.5139 7.29042 25.4848 7.3194L21.1223 11.6819C21.0934 11.7109 21.059 11.734 21.021 11.7496C20.9831 11.7652 20.9425 11.7732 20.9015 11.773ZM9.67083 16.1454H2.18374C1.60478 16.1461 1.04972 16.3764 0.640331 16.7858C0.230944 17.1952 0.000660537 17.7502 0 18.3292V25.8163C0.000660537 26.3952 0.230944 26.9503 0.640331 27.3597C1.04972 27.7691 1.60478 27.9993 2.18374 28H9.67083C10.2498 27.9993 10.8048 27.7691 11.2142 27.3597C11.6236 26.9503 11.8539 26.3952 11.8546 25.8163V18.3292C11.8539 17.7502 11.6236 17.1952 11.2142 16.7858C10.8048 16.3764 10.2498 16.1461 9.67083 16.1454ZM2.18374 26.1282C2.101 26.1282 2.02165 26.0954 1.96314 26.0369C1.90464 25.9784 1.87177 25.899 1.87177 25.8163V18.3292C1.87177 18.2464 1.90464 18.1671 1.96314 18.1086C2.02165 18.0501 2.101 18.0172 2.18374 18.0172H9.67083C9.75357 18.0172 9.83291 18.0501 9.89142 18.1086C9.94992 18.1671 9.98279 18.2464 9.98279 18.3292V25.8163C9.98279 25.899 9.94992 25.9784 9.89142 26.0369C9.83291 26.0954 9.75357 26.1282 9.67083 26.1282H2.18374ZM9.67083 1.17125H2.18374C1.60478 1.17191 1.04972 1.40219 0.640331 1.81158C0.230944 2.22097 0.000660537 2.77603 0 3.35499V10.8421C0.000660537 11.421 0.230944 11.9761 0.640331 12.3855C1.04972 12.7949 1.60478 13.0252 2.18374 13.0258H9.67083C10.2498 13.0252 10.8048 12.7949 11.2142 12.3855C11.6236 11.9761 11.8539 11.421 11.8546 10.8421V3.35499C11.8539 2.77603 11.6236 2.22097 11.2142 1.81158C10.8048 1.40219 10.2498 1.17191 9.67083 1.17125ZM2.18374 11.154C2.101 11.154 2.02165 11.1212 1.96314 11.0627C1.90464 11.0042 1.87177 10.9248 1.87177 10.8421V3.35499C1.87177 3.27225 1.90464 3.1929 1.96314 3.1344C2.02165 3.07589 2.101 3.04303 2.18374 3.04303H9.67083C9.75357 3.04303 9.83291 3.07589 9.89142 3.1344C9.94992 3.1929 9.98279 3.27225 9.98279 3.35499V10.8421C9.98279 10.9248 9.94992 11.0042 9.89142 11.0627C9.83291 11.1212 9.75357 11.154 9.67083 11.154H2.18374Z"/>
</mask>
<path d="M24.645 16.1454H17.1579C16.579 16.1461 16.0239 16.3764 15.6145 16.7858C15.2051 17.1952 14.9748 17.7502 14.9742 18.3292V25.8163C14.9748 26.3952 15.2051 26.9503 15.6145 27.3597C16.0239 27.7691 16.579 27.9993 17.1579 28H24.645C25.224 27.9993 25.779 27.7691 26.1884 27.3597C26.5978 26.9503 26.8281 26.3952 26.8287 25.8163V18.3292C26.8281 17.7502 26.5978 17.1952 26.1884 16.7858C25.779 16.3764 25.224 16.1461 24.645 16.1454ZM17.1579 26.1282C17.0752 26.1282 16.9958 26.0954 16.9373 26.0369C16.8788 25.9784 16.846 25.899 16.846 25.8163V18.3292C16.846 18.2464 16.8788 18.1671 16.9373 18.1086C16.9958 18.0501 17.0752 18.0172 17.1579 18.0172H24.645C24.7278 18.0172 24.8071 18.0501 24.8656 18.1086C24.9241 18.1671 24.957 18.2464 24.957 18.3292V25.8163C24.957 25.899 24.9241 25.9784 24.8656 26.0369C24.8071 26.0954 24.7278 26.1282 24.645 26.1282H17.1579ZM20.9015 0.553566C20.6148 0.553068 20.3308 0.609259 20.0659 0.718904C19.801 0.828552 19.5604 0.989492 19.3579 1.19246L14.9954 5.55494C14.5868 5.96475 14.3574 6.51984 14.3574 7.09853C14.3574 7.67723 14.5868 8.23231 14.9954 8.64212L19.3579 13.0046C19.7675 13.4135 20.3227 13.6431 20.9015 13.6431C21.4803 13.6431 22.0354 13.4135 22.4451 13.0046L26.8075 8.64212C27.2164 8.23248 27.4461 7.67733 27.4461 7.09853C27.4461 6.51974 27.2164 5.96459 26.8075 5.55494L22.4451 1.19246C22.2426 0.989492 22.002 0.828552 21.737 0.718904C21.4721 0.609259 21.1882 0.553068 20.9015 0.553566ZM20.9015 11.773C20.8605 11.7732 20.8198 11.7652 20.7819 11.7496C20.744 11.734 20.7095 11.7109 20.6806 11.6819L16.3181 7.3194C16.2891 7.29042 16.266 7.256 16.2503 7.2181C16.2346 7.1802 16.2265 7.13957 16.2265 7.09853C16.2265 7.0575 16.2346 7.01687 16.2503 6.97897C16.266 6.94107 16.2891 6.90664 16.3181 6.87766L20.6806 2.51518C20.7096 2.48613 20.744 2.46308 20.7819 2.44736C20.8198 2.43163 20.8604 2.42353 20.9015 2.42353C20.9425 2.42353 20.9831 2.43163 21.021 2.44736C21.0589 2.46308 21.0934 2.48613 21.1223 2.51518L25.4848 6.87766C25.5139 6.90664 25.5369 6.94107 25.5526 6.97897C25.5684 7.01687 25.5765 7.0575 25.5765 7.09853C25.5765 7.13957 25.5684 7.1802 25.5526 7.2181C25.5369 7.256 25.5139 7.29042 25.4848 7.3194L21.1223 11.6819C21.0934 11.7109 21.059 11.734 21.021 11.7496C20.9831 11.7652 20.9425 11.7732 20.9015 11.773ZM9.67083 16.1454H2.18374C1.60478 16.1461 1.04972 16.3764 0.640331 16.7858C0.230944 17.1952 0.000660537 17.7502 0 18.3292V25.8163C0.000660537 26.3952 0.230944 26.9503 0.640331 27.3597C1.04972 27.7691 1.60478 27.9993 2.18374 28H9.67083C10.2498 27.9993 10.8048 27.7691 11.2142 27.3597C11.6236 26.9503 11.8539 26.3952 11.8546 25.8163V18.3292C11.8539 17.7502 11.6236 17.1952 11.2142 16.7858C10.8048 16.3764 10.2498 16.1461 9.67083 16.1454ZM2.18374 26.1282C2.101 26.1282 2.02165 26.0954 1.96314 26.0369C1.90464 25.9784 1.87177 25.899 1.87177 25.8163V18.3292C1.87177 18.2464 1.90464 18.1671 1.96314 18.1086C2.02165 18.0501 2.101 18.0172 2.18374 18.0172H9.67083C9.75357 18.0172 9.83291 18.0501 9.89142 18.1086C9.94992 18.1671 9.98279 18.2464 9.98279 18.3292V25.8163C9.98279 25.899 9.94992 25.9784 9.89142 26.0369C9.83291 26.0954 9.75357 26.1282 9.67083 26.1282H2.18374ZM9.67083 1.17125H2.18374C1.60478 1.17191 1.04972 1.40219 0.640331 1.81158C0.230944 2.22097 0.000660537 2.77603 0 3.35499V10.8421C0.000660537 11.421 0.230944 11.9761 0.640331 12.3855C1.04972 12.7949 1.60478 13.0252 2.18374 13.0258H9.67083C10.2498 13.0252 10.8048 12.7949 11.2142 12.3855C11.6236 11.9761 11.8539 11.421 11.8546 10.8421V3.35499C11.8539 2.77603 11.6236 2.22097 11.2142 1.81158C10.8048 1.40219 10.2498 1.17191 9.67083 1.17125ZM2.18374 11.154C2.101 11.154 2.02165 11.1212 1.96314 11.0627C1.90464 11.0042 1.87177 10.9248 1.87177 10.8421V3.35499C1.87177 3.27225 1.90464 3.1929 1.96314 3.1344C2.02165 3.07589 2.101 3.04303 2.18374 3.04303H9.67083C9.75357 3.04303 9.83291 3.07589 9.89142 3.1344C9.94992 3.1929 9.98279 3.27225 9.98279 3.35499V10.8421C9.98279 10.9248 9.94992 11.0042 9.89142 11.0627C9.83291 11.1212 9.75357 11.154 9.67083 11.154H2.18374Z" fill="black" stroke="#9C9C9C" stroke-width="2.4957" mask="url(#path-1-inside-1_162_314)"/>
</svg>
