<svg width="36" height="58" viewBox="0 0 36 58" fill="none" xmlns="http://www.w3.org/2000/svg">
<path d="M12.5538 54.669H8.90581V54.297L10.0338 53.409V46.773L6.82981 54.669H6.16981L2.98981 46.689V53.553L4.24981 54.189L4.00981 54.669H1.20181V54.297L2.32981 53.409V46.377L1.08181 45.705L1.32181 45.225H3.92581L6.92581 52.761L9.91381 45.225H12.6738V45.597L11.5338 46.485V53.745L12.7938 54.189L12.5538 54.669ZM17.8479 48.165C18.3759 48.165 18.8479 48.305 19.2639 48.585C19.6879 48.857 20.0159 49.229 20.2479 49.701C20.4879 50.173 20.6079 50.693 20.6079 51.261C20.6079 51.877 20.4199 52.457 20.0439 53.001C19.6679 53.537 19.1959 53.969 18.6279 54.297C18.0679 54.617 17.5239 54.777 16.9959 54.777C16.4679 54.777 15.9919 54.641 15.5679 54.369C15.1519 54.089 14.8239 53.713 14.5839 53.241C14.3519 52.769 14.2359 52.249 14.2359 51.681C14.2359 51.065 14.4239 50.489 14.7999 49.953C15.1759 49.409 15.6439 48.977 16.2039 48.657C16.7719 48.329 17.3199 48.165 17.8479 48.165ZM17.1519 49.173C16.2479 49.173 15.7959 49.817 15.7959 51.105C15.7959 51.865 15.9599 52.501 16.2879 53.013C16.6159 53.517 17.0839 53.769 17.6919 53.769C18.5959 53.769 19.0479 53.121 19.0479 51.825C19.0479 51.073 18.8839 50.445 18.5559 49.941C18.2279 49.429 17.7599 49.173 17.1519 49.173ZM26.4387 48.177C26.7027 48.177 26.9347 48.249 27.1347 48.393C27.3347 48.537 27.4907 48.737 27.6027 48.993L26.8107 49.989H26.3547C26.3227 49.789 26.2627 49.649 26.1747 49.569C26.0947 49.481 25.9827 49.437 25.8387 49.437C25.6627 49.437 25.4747 49.485 25.2747 49.581C25.0827 49.669 24.8627 49.841 24.6147 50.097V53.673L26.2947 54.189L26.0547 54.669H22.1067V54.297L23.1747 53.457V50.061L22.1067 49.437V49.065L24.1587 48.057L24.5307 49.533L25.7787 48.261C25.9467 48.197 26.1667 48.165 26.4387 48.165V48.177ZM32.4213 54.681C32.1013 54.745 31.7173 54.777 31.2693 54.777C30.7413 54.777 30.2653 54.641 29.8413 54.369C29.4253 54.089 29.0973 53.713 28.8573 53.241C28.6253 52.769 28.5093 52.249 28.5093 51.681C28.5093 51.065 28.6973 50.489 29.0733 49.953C29.4493 49.409 29.9173 48.977 30.4773 48.657C31.0453 48.329 31.5933 48.165 32.1213 48.165C32.8813 48.165 33.4693 48.465 33.8853 49.065C34.3093 49.665 34.5213 50.457 34.5213 51.441H30.0813C30.1293 52.121 30.3133 52.677 30.6333 53.109C30.9613 53.541 31.4053 53.757 31.9653 53.757C32.4853 53.757 33.2253 53.353 34.1853 52.545L34.5453 53.001L32.4213 54.681ZM31.4253 49.173C30.5613 49.173 30.1093 49.765 30.0693 50.949H32.8773C32.8053 50.517 32.7293 50.189 32.6493 49.965C32.5773 49.733 32.4453 49.545 32.2533 49.401C32.0693 49.249 31.7933 49.173 31.4253 49.173Z" fill="#C91A1A"/>
<path d="M5.2147 11.8984C4.90808 11.8984 4.61401 11.7766 4.39719 11.5598C4.18037 11.343 4.05856 11.0489 4.05856 10.7423V1.4955C4.05856 1.18887 4.18037 0.894799 4.39719 0.677981C4.61401 0.461163 4.90808 0.339355 5.2147 0.339355H14.4638C14.7704 0.339355 15.0645 0.461163 15.2813 0.677981C15.4982 0.894799 15.62 1.18887 15.62 1.4955V10.7423C15.62 11.0489 15.4982 11.343 15.2813 11.5598C15.0645 11.7766 14.7704 11.8984 14.4638 11.8984H5.2147ZM21.4007 11.8984C21.094 11.8984 20.8 11.7766 20.5831 11.5598C20.3663 11.343 20.2445 11.0489 20.2445 10.7423V1.4955C20.2445 1.18887 20.3663 0.894799 20.5831 0.677981C20.8 0.461163 21.094 0.339355 21.4007 0.339355H30.6475C30.9541 0.339355 31.2482 0.461163 31.465 0.677981C31.6818 0.894799 31.8036 1.18887 31.8036 1.4955V10.7423C31.8036 11.0489 31.6818 11.343 31.465 11.5598C31.2482 11.7766 30.9541 11.8984 30.6475 11.8984H21.4007ZM5.2147 28.0844C4.90808 28.0844 4.61401 27.9626 4.39719 27.7458C4.18037 27.529 4.05856 27.2349 4.05856 26.9283V17.6791C4.05856 17.3725 4.18037 17.0784 4.39719 16.8616C4.61401 16.6448 4.90808 16.523 5.2147 16.523H14.4638C14.7704 16.523 15.0645 16.6448 15.2813 16.8616C15.4982 17.0784 15.62 17.3725 15.62 17.6791V26.9283C15.62 27.2349 15.4982 27.529 15.2813 27.7458C15.0645 27.9626 14.7704 28.0844 14.4638 28.0844H5.2147ZM21.4007 28.0844C21.094 28.0844 20.8 27.9626 20.5831 27.7458C20.3663 27.529 20.2445 27.2349 20.2445 26.9283V17.6791C20.2445 17.3725 20.3663 17.0784 20.5831 16.8616C20.8 16.6448 21.094 16.523 21.4007 16.523H30.6475C30.9541 16.523 31.2482 16.6448 31.465 16.8616C31.6818 17.0784 31.8036 17.3725 31.8036 17.6791V26.9283C31.8036 27.2349 31.6818 27.529 31.465 27.7458C31.2482 27.9626 30.9541 28.0844 30.6475 28.0844H21.4007Z" fill="#C91A1A"/>
</svg>
