<svg width="32" height="28" viewBox="0 0 32 28" fill="none" xmlns="http://www.w3.org/2000/svg">
<path d="M17.6046 2.51282C17.6046 3.3148 16.9203 4.02564 16 4.02564C15.0796 4.02564 14.3953 3.3148 14.3953 2.51282C14.3953 1.71084 15.0796 1 16 1C16.9203 1 17.6046 1.71084 17.6046 2.51282Z" stroke="#9C9C9C" stroke-width="2"/>
<path d="M31 6.82038C31 7.62236 30.3157 8.3332 29.3953 8.3332C28.4749 8.3332 27.7906 7.62236 27.7906 6.82038C27.7906 6.0184 28.4749 5.30756 29.3953 5.30756C30.3157 5.30756 31 6.0184 31 6.82038Z" stroke="#9C9C9C" stroke-width="2"/>
<path d="M4.2093 6.82038C4.2093 7.62236 3.52501 8.3332 2.60465 8.3332C1.68429 8.3332 1 7.62236 1 6.82038C1 6.0184 1.68429 5.30756 2.60465 5.30756C3.52501 5.30756 4.2093 6.0184 4.2093 6.82038Z" stroke="#9C9C9C" stroke-width="2"/>
<path d="M28.7659 8.26459L28.7659 8.26466L26.2684 20.3147L26.2684 20.3148C26.1316 20.975 25.7604 21.5767 25.2085 22.0131C24.656 22.4501 23.9582 22.6925 23.2336 22.6924H23.2334H8.76647H8.76635C8.04169 22.6925 7.3439 22.4501 6.79137 22.0131C6.23954 21.5767 5.86832 20.975 5.73153 20.3148L5.73152 20.3147L3.23403 8.26466L3.23401 8.2646C3.23234 8.25651 3.23287 8.24743 3.2379 8.23683C3.2432 8.22565 3.25531 8.2097 3.27882 8.19685C3.30276 8.18378 3.33374 8.17686 3.36623 8.18036C3.39863 8.18386 3.42434 8.19677 3.44096 8.21135L3.44098 8.21137L6.75329 11.1169C6.75352 11.1171 6.75375 11.1173 6.75398 11.1175C6.75402 11.1176 6.75406 11.1176 6.7541 11.1176C7.28046 11.5801 7.91334 11.9087 8.59632 12.0775C9.27958 12.2465 9.99481 12.2512 10.6803 12.0914L10.4532 11.1175L10.6803 12.0914C11.3659 11.9315 12.0035 11.6112 12.5364 11.1555C13.0692 10.6999 13.4814 10.1224 13.7336 9.47152C13.7337 9.47118 13.7339 9.47085 13.734 9.47052L15.8868 3.93439C15.8868 3.93436 15.8869 3.93433 15.8869 3.93429C15.8908 3.92435 15.9002 3.90965 15.92 3.89641C15.9402 3.88287 15.9682 3.87335 16 3.87335C16.0317 3.87335 16.0597 3.88287 16.0799 3.89641C16.0998 3.90964 16.1091 3.92434 16.113 3.93429C16.1131 3.93433 16.1131 3.93436 16.1131 3.93439L18.2664 9.47178C18.2664 9.47181 18.2664 9.47185 18.2665 9.47189C18.5193 10.1223 18.932 10.6994 19.465 11.1545C19.9978 11.6096 20.635 11.9294 21.3202 12.0892C22.0052 12.2489 22.7199 12.2444 23.4028 12.076C24.0858 11.9076 24.7189 11.5796 25.2456 11.1178L25.2458 11.1176L28.5589 8.21137L28.559 8.21135C28.5756 8.19677 28.6013 8.18386 28.6337 8.18036C28.6662 8.17686 28.6971 8.18378 28.7211 8.19685C28.7446 8.2097 28.7567 8.22565 28.762 8.23683C28.767 8.24744 28.7676 8.25652 28.7659 8.26459ZM6.9747 26.8814C6.99397 26.8628 7.02753 26.8463 7.06972 26.8463H24.9302C24.9724 26.8463 25.0059 26.8628 25.0252 26.8814C25.0433 26.8988 25.0465 26.9146 25.0465 26.9232C25.0465 26.9318 25.0433 26.9476 25.0252 26.965C25.0059 26.9836 24.9724 27.0001 24.9302 27.0001H7.06972C7.02753 27.0001 6.99397 26.9836 6.9747 26.965C6.95664 26.9476 6.95344 26.9318 6.95344 26.9232C6.95344 26.9146 6.95664 26.8988 6.9747 26.8814Z" stroke="#9C9C9C" stroke-width="2"/>
</svg>
