<svg width="35" height="35" viewBox="0 0 35 35" fill="none" xmlns="http://www.w3.org/2000/svg">
<g opacity="0.8">
<path d="M6.83887 9.66728C8.40098 9.66728 9.66731 8.40095 9.66731 6.83884C9.66731 5.27674 8.40098 4.01041 6.83887 4.01041C5.27677 4.01041 4.01044 5.27674 4.01044 6.83884C4.01044 8.40095 5.27677 9.66728 6.83887 9.66728Z" stroke="#07345B" stroke-width="0.5" stroke-linecap="round" stroke-linejoin="round"/>
<path d="M6.83887 30.9896C8.40098 30.9896 9.66731 29.7232 9.66731 28.1611C9.66731 26.599 8.40098 25.3327 6.83887 25.3327C5.27677 25.3327 4.01044 26.599 4.01044 28.1611C4.01044 29.7232 5.27677 30.9896 6.83887 30.9896Z" stroke="#07345B" stroke-width="0.5" stroke-linecap="round" stroke-linejoin="round"/>
<path d="M6.83887 20.3284C8.40098 20.3284 9.66731 19.0621 9.66731 17.5C9.66731 15.9379 8.40098 14.6716 6.83887 14.6716C5.27677 14.6716 4.01044 15.9379 4.01044 17.5C4.01044 19.0621 5.27677 20.3284 6.83887 20.3284Z" stroke="#07345B" stroke-width="0.5" stroke-linecap="round" stroke-linejoin="round"/>
<path d="M29.6844 4.01041H14.019C13.2981 4.01041 12.7137 4.59477 12.7137 5.31561V8.36207C12.7137 9.08292 13.2981 9.66728 14.019 9.66728H29.6844C30.4052 9.66728 30.9896 9.08292 30.9896 8.36207V5.31561C30.9896 4.59477 30.4052 4.01041 29.6844 4.01041Z" stroke="#07345B" stroke-width="0.5" stroke-linecap="round" stroke-linejoin="round"/>
<path d="M29.6844 25.3327H14.019C13.2981 25.3327 12.7137 25.9171 12.7137 26.6379V29.6844C12.7137 30.4052 13.2981 30.9896 14.019 30.9896H29.6844C30.4052 30.9896 30.9896 30.4052 30.9896 29.6844V26.6379C30.9896 25.9171 30.4052 25.3327 29.6844 25.3327Z" stroke="#07345B" stroke-width="0.5" stroke-linecap="round" stroke-linejoin="round"/>
<path d="M29.6844 14.6716H14.019C13.2981 14.6716 12.7137 15.2559 12.7137 15.9768V19.0232C12.7137 19.7441 13.2981 20.3284 14.019 20.3284H29.6844C30.4052 20.3284 30.9896 19.7441 30.9896 19.0232V15.9768C30.9896 15.2559 30.4052 14.6716 29.6844 14.6716Z" stroke="#07345B" stroke-width="0.5" stroke-linecap="round" stroke-linejoin="round"/>
</g>
</svg>
