<svg width="35" height="35" viewBox="0 0 35 35" fill="none" xmlns="http://www.w3.org/2000/svg">
<g opacity="0.8">
<path d="M15.3648 33.9179L15.3488 33.9208L15.2452 33.9719L15.216 33.9777L15.1956 33.9719L15.0921 33.9208C15.0765 33.916 15.0649 33.9184 15.0571 33.9281L15.0513 33.9427L15.0265 34.5669L15.0338 34.5961L15.0483 34.615L15.2 34.7229L15.2219 34.7288L15.2394 34.7229L15.391 34.615L15.4085 34.5917L15.4144 34.5669L15.3896 33.9442C15.3857 33.9286 15.3774 33.9199 15.3648 33.9179ZM15.7513 33.7531L15.7323 33.7561L15.4625 33.8917L15.4479 33.9063L15.4435 33.9223L15.4698 34.5494L15.4771 34.5669L15.4888 34.5771L15.7819 34.7127C15.8004 34.7176 15.8145 34.7137 15.8242 34.7011L15.83 34.6806L15.7804 33.7852C15.7756 33.7677 15.7658 33.757 15.7513 33.7531ZM14.7085 33.7561C14.7021 33.7522 14.6944 33.7509 14.6871 33.7525C14.6798 33.7542 14.6733 33.7586 14.6692 33.7648L14.6604 33.7852L14.6108 34.6806C14.6118 34.6981 14.6201 34.7098 14.6356 34.7156L14.6575 34.7127L14.9506 34.5771L14.9652 34.5654L14.971 34.5494L14.9958 33.9223L14.9915 33.9048L14.9769 33.8902L14.7085 33.7561Z" fill="#07345B"/>
<path d="M18.0146 3.34397C19.4268 3.69494 20.7786 4.25532 22.025 5.00647C22.2748 5.1572 22.4736 5.37938 22.5958 5.64429C22.718 5.9092 22.7579 6.20467 22.7104 6.49252C22.5456 7.49731 22.795 8.26585 23.2646 8.73543C23.7341 9.20502 24.5041 9.45439 25.5075 9.2896C25.7953 9.2421 26.0908 9.28203 26.3557 9.40422C26.6206 9.5264 26.8428 9.72524 26.9935 9.97502C27.7447 11.2214 28.3051 12.5732 28.656 13.9854C28.7264 14.2688 28.7102 14.5669 28.6093 14.8409C28.5084 15.115 28.3276 15.3524 28.0902 15.5225C27.2633 16.1161 26.8944 16.835 26.8944 17.5C26.8944 18.165 27.2633 18.8854 28.0902 19.479C28.3273 19.649 28.5079 19.8862 28.6088 20.1599C28.7097 20.4337 28.7261 20.7314 28.656 21.0146C28.3051 22.4269 27.7447 23.7786 26.9935 25.025C26.8428 25.2748 26.6206 25.4736 26.3557 25.5958C26.0908 25.718 25.7953 25.7579 25.5075 25.7104C24.5027 25.5456 23.7341 25.7965 23.2646 26.2646C22.795 26.7342 22.5456 27.5042 22.7104 28.5075C22.7582 28.7956 22.7184 29.0914 22.5962 29.3566C22.474 29.6218 22.275 29.8442 22.025 29.995C20.7786 30.7462 19.4268 31.3065 18.0146 31.6575C17.7312 31.7279 17.4331 31.7117 17.1591 31.6108C16.885 31.5099 16.6476 31.3291 16.4775 31.0917C15.8839 30.2633 15.165 29.8958 14.5 29.8958C13.835 29.8958 13.1146 30.2633 12.521 31.0917C12.351 31.3288 12.1138 31.5094 11.8401 31.6103C11.5663 31.7112 11.2686 31.7276 10.9854 31.6575C9.57313 31.3065 8.22135 30.7462 6.97498 29.995C6.72494 29.8442 6.52593 29.6218 6.40373 29.3566C6.28153 29.0914 6.24176 28.7956 6.28956 28.5075C6.45435 27.5042 6.20352 26.7356 5.73539 26.2661C5.26435 25.7965 4.49581 25.5456 3.49248 25.7119C3.20441 25.7597 2.90863 25.7199 2.64342 25.5977C2.37822 25.4755 2.1558 25.2765 2.00498 25.0265C1.25356 23.7792 0.693173 22.4264 0.342479 21.0131C0.272369 20.7299 0.288812 20.4322 0.389682 20.1585C0.490552 19.8847 0.671213 19.6475 0.908312 19.4775C1.73665 18.8854 2.10415 18.165 2.10415 17.5C2.10415 16.8365 1.73665 16.1146 0.908312 15.5225C0.671213 15.3525 0.490552 15.1153 0.389682 14.8416C0.288812 14.5678 0.272369 14.2701 0.342479 13.9869C0.693311 12.5741 1.25369 11.2218 2.00498 9.97502C2.1558 9.72498 2.37822 9.52597 2.64342 9.40377C2.90863 9.28157 3.20441 9.24179 3.49248 9.2896C4.49581 9.45439 5.26435 9.20502 5.73394 8.73543C6.20352 8.26585 6.45435 7.49585 6.2881 6.49252C6.24061 6.20467 6.28053 5.9092 6.40272 5.64429C6.52491 5.37938 6.72374 5.1572 6.97352 5.00647C8.22034 4.25518 9.57263 3.69481 10.9854 3.34397C11.2686 3.27386 11.5663 3.29031 11.8401 3.39118C12.1138 3.49205 12.351 3.67271 12.521 3.90981C13.1146 4.73668 13.835 5.10564 14.5 5.10564C15.165 5.10564 15.8854 4.73668 16.4775 3.90981C16.6475 3.67271 16.8847 3.49205 17.1584 3.39118C17.4322 3.29031 17.7314 3.27386 18.0146 3.34397ZM14.5 10.2083C12.5661 10.2083 10.7114 10.9766 9.34399 12.344C7.97654 13.7115 7.20831 15.5661 7.20831 17.5C7.20831 19.4339 7.97654 21.2886 9.34399 22.656C10.7114 24.0235 12.5661 24.7917 14.5 24.7917C16.4338 24.7917 18.2885 24.0235 19.656 22.656C21.0234 21.2886 21.7916 19.4339 21.7916 17.5C21.7916 15.5661 21.0234 13.7115 19.656 12.344C18.2885 10.9766 16.4338 10.2083 14.5 10.2083ZM14.5 13.125C15.6603 13.125 16.7731 13.586 17.5936 14.4064C18.414 15.2269 18.875 16.3397 18.875 17.5C18.875 18.6603 18.414 19.7731 17.5936 20.5936C16.7731 21.4141 15.6603 21.875 14.5 21.875C13.3397 21.875 12.2269 21.4141 11.4064 20.5936C10.5859 19.7731 10.125 18.6603 10.125 17.5C10.125 16.3397 10.5859 15.2269 11.4064 14.4064C12.2269 13.586 13.3397 13.125 14.5 13.125Z" fill="#07345B"/>
</g>
</svg>
