<svg width="29" height="29" viewBox="0 0 29 29" fill="none" xmlns="http://www.w3.org/2000/svg">
<path d="M21.7581 25.5324C24.3207 23.8354 26.2064 21.293 27.0866 18.3483C27.9669 15.4035 27.7858 12.2433 26.5749 9.4184C25.364 6.59351 23.2002 4.28314 20.4606 2.89003C17.721 1.49692 14.5794 1.10943 11.5833 1.7951M21.7581 25.5324V20.4282M21.7581 25.5324H26.8958M7.20834 3.68072C4.65466 5.38392 2.77871 7.92829 1.90671 10.8714C1.03471 13.8145 1.22183 16.9701 2.43553 19.7895C3.64923 22.6089 5.81272 24.9138 8.54979 26.3032C11.2869 27.6927 14.4244 28.0789 17.4167 27.3947M7.20834 3.68072V8.76156M7.20834 3.68072H2.10417" stroke="#07345B" stroke-width="1.5" stroke-linecap="round" stroke-linejoin="round"/>
<path d="M12.2221 18.4842V10.7055M14.5 10.7055V8.76154M14.5 20.4282V18.4842M12.2221 14.5949H16.7779M16.7779 14.5949C17.5334 14.5949 18.1459 15.2482 18.1459 16.0532V17.0259C18.1459 17.8309 17.5334 18.4842 16.7794 18.4842H10.8542M16.7779 14.5949C17.5319 14.5949 18.1459 13.9415 18.1459 13.1365V12.1638C18.1459 11.3588 17.5334 10.7055 16.7794 10.7055H10.8542" stroke="#07345B" stroke-width="1.5" stroke-linecap="round" stroke-linejoin="round"/>
</svg>
