<svg width="31" height="30" viewBox="0 0 31 30" fill="none" xmlns="http://www.w3.org/2000/svg">
<path d="M15.5 25.0954C11.8542 25.0954 8.63127 23.2288 6.75002 20.4288C6.79377 17.5121 12.5834 15.9079 15.5 15.9079C18.4167 15.9079 24.2063 17.5121 24.25 20.4288C23.2861 21.8645 21.9838 23.0412 20.4579 23.855C18.932 24.6688 17.2294 25.0948 15.5 25.0954ZM15.5 4.38708C16.6603 4.38708 17.7731 4.84802 18.5936 5.66849C19.4141 6.48897 19.875 7.60176 19.875 8.76208C19.875 9.92241 19.4141 11.0352 18.5936 11.8557C17.7731 12.6761 16.6603 13.1371 15.5 13.1371C14.3397 13.1371 13.2269 12.6761 12.4064 11.8557C11.586 11.0352 11.125 9.92241 11.125 8.76208C11.125 7.60176 11.586 6.48897 12.4064 5.66849C13.2269 4.84802 14.3397 4.38708 15.5 4.38708ZM15.5 0.012085C13.5849 0.012085 11.6886 0.389294 9.91922 1.12218C8.14989 1.85506 6.54223 2.92926 5.18805 4.28344C2.45314 7.01835 0.916687 10.7277 0.916687 14.5954C0.916687 18.4632 2.45314 22.1725 5.18805 24.9074C6.54223 26.2616 8.14989 27.3358 9.91922 28.0687C11.6886 28.8015 13.5849 29.1788 15.5 29.1788C19.3678 29.1788 23.0771 27.6423 25.812 24.9074C28.5469 22.1725 30.0834 18.4632 30.0834 14.5954C30.0834 6.53084 23.5209 0.012085 15.5 0.012085Z" fill="#07345B"/>
</svg>
