<svg width="28" height="28" viewBox="0 0 28 28" fill="none" xmlns="http://www.w3.org/2000/svg">
<path fill-rule="evenodd" clip-rule="evenodd" d="M8.44549 18.4065C9.82274 19.18 11.7827 19.6875 13.9965 19.6875C16.2102 19.6875 18.172 19.18 19.5492 18.4065C20.9527 17.6155 21.5792 16.6617 21.5792 15.8042C21.5792 14.9467 20.9527 13.993 19.5492 13.2037C18.172 12.4285 16.212 11.9227 13.9965 11.9227C11.7827 11.9227 9.82274 12.4285 8.44549 13.2037C7.04024 13.993 6.41374 14.9467 6.41374 15.8042C6.41374 16.6617 7.04024 17.6155 8.44374 18.4065M7.58624 19.9307C5.92899 18.9997 4.66199 17.5752 4.66199 15.8042C4.66199 14.035 5.92899 12.6105 7.58449 11.6777C9.26974 10.731 11.5395 10.1727 13.9947 10.1727C16.4535 10.1727 18.7197 10.731 20.405 11.6777C22.0622 12.6105 23.3275 14.035 23.3275 15.8042C23.3275 17.5735 22.0622 18.9997 20.405 19.9307C18.7215 20.8792 16.4535 21.4375 13.9947 21.4375C11.536 21.4375 9.26974 20.8775 7.58624 19.9325" fill="#9C9C9C"/>
<path fill-rule="evenodd" clip-rule="evenodd" d="M13.9965 6.99994C14.2285 6.99994 14.4511 7.09213 14.6152 7.25622C14.7793 7.42032 14.8715 7.64287 14.8715 7.87494V11.0477C14.8715 11.2798 14.7793 11.5023 14.6152 11.6664C14.4511 11.8305 14.2285 11.9227 13.9965 11.9227C13.7644 11.9227 13.5419 11.8305 13.3778 11.6664C13.2137 11.5023 13.1215 11.2798 13.1215 11.0477V7.87494C13.1215 7.64287 13.2137 7.42032 13.3778 7.25622C13.5419 7.09213 13.7644 6.99994 13.9965 6.99994ZM18.3977 7.54594C18.6251 7.59155 18.825 7.72554 18.9537 7.91848C19.0823 8.11142 19.1291 8.34753 19.0837 8.57494L18.5552 11.2174C18.5362 11.3333 18.494 11.4442 18.4312 11.5434C18.3684 11.6427 18.2862 11.7282 18.1896 11.795C18.0931 11.8619 17.984 11.9086 17.869 11.9323C17.754 11.9561 17.6354 11.9565 17.5202 11.9335C17.4051 11.9104 17.2957 11.8645 17.1987 11.7983C17.1017 11.7321 17.019 11.647 16.9555 11.5482C16.8921 11.4494 16.8492 11.3388 16.8294 11.2231C16.8096 11.1073 16.8133 10.9887 16.8402 10.8744L17.3687 8.23194C17.4143 8.00458 17.5483 7.80463 17.7413 7.676C17.9342 7.54738 18.1703 7.5006 18.3977 7.54594ZM9.59698 7.54594C9.48425 7.56832 9.37703 7.6127 9.28145 7.67653C9.18587 7.74037 9.1038 7.82241 9.03993 7.91796C8.97607 8.01352 8.93165 8.12072 8.90922 8.23345C8.8868 8.34617 8.8868 8.46221 8.90923 8.57494L9.43948 11.2174C9.4916 11.4382 9.62742 11.6301 9.81831 11.7527C10.0092 11.8753 10.2402 11.9189 10.4627 11.8744C10.6851 11.8299 10.8816 11.7008 11.0107 11.5142C11.1397 11.3277 11.1913 11.0983 11.1545 10.8744L10.626 8.23194C10.5804 8.00458 10.4464 7.80463 10.2534 7.676C10.0605 7.54738 9.82439 7.5006 9.59698 7.54594ZM5.08898 9.23994C4.99037 9.29899 4.90437 9.37688 4.83587 9.46917C4.76738 9.56147 4.71774 9.66635 4.68978 9.77783C4.66183 9.88932 4.65612 10.0052 4.67297 10.1189C4.68981 10.2326 4.7289 10.3419 4.78798 10.4404L6.37523 13.0829C6.49688 13.2773 6.68999 13.4162 6.913 13.4697C7.13602 13.5231 7.3711 13.4869 7.56767 13.3688C7.76423 13.2506 7.90657 13.0601 7.96404 12.8381C8.02152 12.6161 7.98953 12.3804 7.87498 12.1817L6.28948 9.53919C6.16994 9.34034 5.97632 9.19711 5.75119 9.14099C5.52607 9.08487 5.28787 9.12046 5.08898 9.23994ZM22.9057 9.23994C23.1046 9.35948 23.2478 9.5531 23.3039 9.77823C23.36 10.0034 23.3245 10.2416 23.205 10.4404L21.6195 13.0829C21.4978 13.2773 21.3047 13.4162 21.0817 13.4697C20.8587 13.5231 20.6236 13.4869 20.427 13.3688C20.2305 13.2506 20.0881 13.0601 20.0307 12.8381C19.9732 12.6161 20.0052 12.3804 20.1197 12.1817L21.7052 9.53919C21.8248 9.34034 22.0184 9.19711 22.2435 9.14099C22.4686 9.08487 22.7068 9.12046 22.9057 9.23994Z" fill="#9C9C9C"/>
<path fill-rule="evenodd" clip-rule="evenodd" d="M12.229 15.2775C12.229 15.7463 12.4152 16.1958 12.7467 16.5273C13.0782 16.8588 13.5277 17.045 13.9965 17.045C14.4653 17.045 14.9148 16.8588 15.2463 16.5273C15.5778 16.1958 15.764 15.7463 15.764 15.2775C15.764 14.8087 15.5778 14.3592 15.2463 14.0277C14.9148 13.6962 14.4653 13.51 13.9965 13.51C13.5277 13.51 13.0782 13.6962 12.7467 14.0277C12.4152 14.3592 12.229 14.8087 12.229 15.2775ZM13.9965 18.795C13.0634 18.795 12.1685 18.4243 11.5086 17.7645C10.8488 17.1047 10.4781 16.2098 10.4781 15.2766C10.4781 14.3435 10.8488 13.4486 11.5086 12.7888C12.1685 12.1289 13.0634 11.7582 13.9965 11.7582C14.9294 11.7582 15.8241 12.1288 16.4837 12.7885C17.1434 13.4482 17.514 14.3428 17.514 15.2757C17.514 16.2086 17.1434 17.1033 16.4837 17.763C15.8241 18.4227 14.9294 18.795 13.9965 18.795ZM0 3.5C0 2.57174 0.368749 1.6815 1.02513 1.02513C1.6815 0.368749 2.57174 0 3.5 0H6.9335C7.16556 0 7.38812 0.0921874 7.55222 0.256282C7.71631 0.420376 7.8085 0.642936 7.8085 0.875C7.8085 1.10706 7.71631 1.32962 7.55222 1.49372C7.38812 1.65781 7.16556 1.75 6.9335 1.75H3.5C3.03587 1.75 2.59075 1.93437 2.26256 2.26256C1.93437 2.59075 1.75 3.03587 1.75 3.5V7.4375C1.75 7.66956 1.65781 7.89212 1.49372 8.05622C1.32962 8.22031 1.10706 8.3125 0.875 8.3125C0.642936 8.3125 0.420376 8.22031 0.256282 8.05622C0.0921874 7.89212 0 7.66956 0 7.4375V3.5ZM19.6875 0.875C19.6875 0.642936 19.7797 0.420376 19.9438 0.256282C20.1079 0.0921874 20.3304 0 20.5625 0H24.5C25.4283 0 26.3185 0.368749 26.9749 1.02513C27.6313 1.6815 28 2.57174 28 3.5V7.4375C28 7.66956 27.9078 7.89212 27.7437 8.05622C27.5796 8.22031 27.3571 8.3125 27.125 8.3125C26.8929 8.3125 26.6704 8.22031 26.5063 8.05622C26.3422 7.89212 26.25 7.66956 26.25 7.4375V3.5C26.25 3.03587 26.0656 2.59075 25.7374 2.26256C25.4093 1.93437 24.9641 1.75 24.5 1.75H20.5625C20.3304 1.75 20.1079 1.65781 19.9438 1.49372C19.7797 1.32962 19.6875 1.10706 19.6875 0.875ZM0.875 19.1835C1.10706 19.1835 1.32962 19.2757 1.49372 19.4398C1.65781 19.6039 1.75 19.8264 1.75 20.0585V24.5C1.75 24.9641 1.93437 25.4092 2.26256 25.7374C2.59075 26.0656 3.03587 26.25 3.5 26.25H7.4375C7.66956 26.25 7.89212 26.3422 8.05622 26.5063C8.22031 26.6704 8.3125 26.8929 8.3125 27.125C8.3125 27.3571 8.22031 27.5796 8.05622 27.7437C7.89212 27.9078 7.66956 28 7.4375 28H3.5C2.57174 28 1.6815 27.6312 1.02513 26.9749C0.368749 26.3185 0 25.4283 0 24.5V20.0567C0 19.8247 0.0921874 19.6021 0.256282 19.438C0.420376 19.2739 0.642936 19.1835 0.875 19.1835ZM27.125 19.6857C27.3571 19.6857 27.5796 19.7779 27.7437 19.942C27.9078 20.1061 28 20.3287 28 20.5607V24.5C28 25.4283 27.6313 26.3185 26.9749 26.9749C26.3185 27.6312 25.4283 28 24.5 28H20.5625C20.3304 28 20.1079 27.9078 19.9438 27.7437C19.7797 27.5796 19.6875 27.3571 19.6875 27.125C19.6875 26.8929 19.7797 26.6704 19.9438 26.5063C20.1079 26.3422 20.3304 26.25 20.5625 26.25H24.5C24.9641 26.25 25.4093 26.0656 25.7374 25.7374C26.0656 25.4092 26.25 24.9641 26.25 24.5V20.5625C26.25 20.3304 26.3422 20.1079 26.5063 19.9438C26.6704 19.7797 26.8929 19.6875 27.125 19.6875" fill="#9C9C9C"/>
</svg>
